HIERARCHY
ROOT Hips
{
	OFFSET 0.00000 0.00000 0.00000
	CHANNELS 6 Xposition Yposition Zposition Zrotation Yrotation Xrotation 
	JOINT LHipJoint
	{
		OFFSET 0 0 0
		CHANNELS 3 Zrotation Yrotation Xrotation
		JOINT LeftUpLeg
		{
			OFFSET 1.56857 -1.73443 1.15205
			CHANNELS 3 Zrotation Yrotation Xrotation
			JOINT LeftLeg
			{
				OFFSET 2.39362 -6.57643 0.00000
				CHANNELS 3 Zrotation Yrotation Xrotation
				JOINT LeftFoot
				{
					OFFSET 2.50952 -6.89485 0.00000
					CHANNELS 3 Zrotation Yrotation Xrotation
					JOINT LeftToeBase
					{
						OFFSET 0.17171 -0.47178 1.88682
						CHANNELS 3 Zrotation Yrotation Xrotation
						End Site
						{
							OFFSET 0.00000 -0.00000 0.98146
						}
					}
				}
			}
		}
	}
	JOINT RHipJoint
	{
		OFFSET 0 0 0
		CHANNELS 3 Zrotation Yrotation Xrotation
		JOINT RightUpLeg
		{
			OFFSET -1.28153 -1.73443 1.15205
			CHANNELS 3 Zrotation Yrotation Xrotation
			JOINT RightLeg
			{
				OFFSET -2.26861 -6.23296 0.00000
				CHANNELS 3 Zrotation Yrotation Xrotation
				JOINT RightFoot
				{
					OFFSET -2.54143 -6.98254 0.00000
					CHANNELS 3 Zrotation Yrotation Xrotation
					JOINT RightToeBase
					{
						OFFSET -0.23309 -0.64041 1.93119
						CHANNELS 3 Zrotation Yrotation Xrotation
						End Site
						{
							OFFSET -0.00000 -0.00000 1.02013
						}
					}
				}
			}
		}
	}
	JOINT LowerBack
	{
		OFFSET 0 0 0
		CHANNELS 3 Zrotation Yrotation Xrotation
		JOINT Spine
		{
			OFFSET -0.07096 2.10460 -0.27878
			CHANNELS 3 Zrotation Yrotation Xrotation
			JOINT Spine1
			{
				OFFSET -0.00826 2.13662 -0.08279
				CHANNELS 3 Zrotation Yrotation Xrotation
				JOINT Neck
				{
					OFFSET 0 0 0
					CHANNELS 3 Zrotation Yrotation Xrotation
					JOINT Neck1
					{
						OFFSET 0.03239 1.77799 0.24435
						CHANNELS 3 Zrotation Yrotation Xrotation
						JOINT Head
						{
							OFFSET 0.01026 1.74194 -0.49664
							CHANNELS 3 Zrotation Yrotation Xrotation
							End Site
							{
								OFFSET 0.00170 1.83057 -0.19653
							}
						}
					}
				}
				JOINT LeftShoulder
				{
					OFFSET 0 0 0
					CHANNELS 3 Zrotation Yrotation Xrotation
					JOINT LeftArm
					{
						OFFSET 3.19178 1.35907 -0.31412
						CHANNELS 3 Zrotation Yrotation Xrotation
						JOINT LeftForeArm
						{
							OFFSET 4.85247 -0.00000 -0.00000
							CHANNELS 3 Zrotation Yrotation Xrotation
							JOINT LeftHand
							{
								OFFSET 3.55584 -0.00000 0.00000
								CHANNELS 3 Zrotation Yrotation Xrotation
								JOINT LeftFingerBase
								{
									OFFSET 0 0 0
									CHANNELS 3 Zrotation Yrotation Xrotation
									JOINT LeftHandIndex1
									{
										OFFSET 0.69320 -0.00000 0.00000
										CHANNELS 3 Zrotation Yrotation Xrotation
										End Site
										{
											OFFSET 0.55888 -0.00000 0.00000
										}
									}
								}
								JOINT LThumb
								{
									OFFSET 0 0 0
									CHANNELS 3 Zrotation Yrotation Xrotation
									End Site
									{
										OFFSET 0.56741 -0.00000 0.56741
									}
								}
							}
						}
					}
				}
				JOINT RightShoulder
				{
					OFFSET 0 0 0
					CHANNELS 3 Zrotation Yrotation Xrotation
					JOINT RightArm
					{
						OFFSET -3.28999 1.24191 -0.26899
						CHANNELS 3 Zrotation Yrotation Xrotation
						JOINT RightForeArm
						{
							OFFSET -4.64462 -0.00000 0.00000
							CHANNELS 3 Zrotation Yrotation Xrotation
							JOINT RightHand
							{
								OFFSET -3.40703 -0.00000 0.00000
								CHANNELS 3 Zrotation Yrotation Xrotation
								JOINT RightFingerBase
								{
									OFFSET 0 0 0
									CHANNELS 3 Zrotation Yrotation Xrotation
									JOINT RightHandIndex1
									{
										OFFSET -0.61958 -0.00000 0.00000
										CHANNELS 3 Zrotation Yrotation Xrotation
										End Site
										{
											OFFSET -0.49952 -0.00000 0.00000
										}
									}
								}
								JOINT RThumb
								{
									OFFSET 0 0 0
									CHANNELS 3 Zrotation Yrotation Xrotation
									End Site
									{
										OFFSET -0.50715 -0.00000 0.50715
									}
								}
							}
						}
					}
				}
			}
		}
	}
}
MOTION
Frames: 11
Frame Time: .0083333
0.0 0.0 0.0 0 0 0 0 0 0 -21 0 0 0 0 0 0 0 0 0 0 0 0 0 0 21 0 0 0 0 0 0 0 0 0 0 0 0 0 0 0 0 0 0 0 0 0 0 -16 0 0 21 0 0 11 0 0 0 -8 0 0 0 0 0 0 0 0 0 0 0 0 0 0 0 0 0 0 0 0 8 0 0 0 0 0 0 0 0 0 0 0 0 0 0 0 0 0
0.0000 0.0000 0.0000 0.0000 0.0000 0.0000 0.0000 0.0000 0.0000 0.0000 0.0000 0.0000 0.0000 0.0000 0.0000 0.0000 0.0000 0.0000 0.0000 0.0000 0.0000 0.0000 0.0000 0.0000 0.0000 0.0000 0.0000 0.0000 0.0000 0.0000 -0.0000 -0.0000 0.0000 -0.0000 -0.0000 0.0000 0.0000 0.0000 0.0000 0.0000 0.0000 0.0000 0.0000 0.0000 0.0000 0.0000 0.0000 0.0000 0.0000 0.0000 0.0000 0.0000 0.0000 0.0000 0.0000 0.0000 0.0000 -0.0000 0.0000 -0.0000 -0.0000 0.0000 -0.0000 -0.0000 0.0000 0.0000 -0.0000 -0.0000 0.0000 -0.0000 -0.0000 0.0000 -0.0000 0.0000 0.0000 0.0000 0.0000 0.0000 0.0000 -0.0000 -0.0000 0.0000 -0.0000 -0.0000 0.0000 0.0000 0.0000 0.0000 0.0000 0.0000 0.0000 0.0000 0.0000 0.0000 -0.0000 0.0000
0.0000 0.0000 0.0000 0.0000 0.0000 0.0000 0.0000 0.0000 0.0000 0.0000 0.0000 0.0000 0.0000 0.0000 0.0000 0.0000 0.0000 0.0000 0.0000 0.0000 0.0000 0.0000 0.0000 0.0000 0.0000 0.0000 0.0000 0.0000 0.0000 0.0000 -0.0000 -0.0000 0.0000 -0.0000 -0.0000 0.0000 0.0000 0.0000 0.0000 0.0000 0.0000 0.0000 0.0000 0.0000 0.0000 0.0000 0.0000 0.0000 0.0000 0.0000 0.0000 0.0000 0.0000 0.0000 0.0000 0.0000 0.0000 -0.0000 0.0000 -0.0000 -0.0000 0.0000 -0.0000 -0.0000 0.0000 0.0000 -0.0000 -0.0000 0.0000 -0.0000 -0.0000 0.0000 -0.0000 0.0000 0.0000 0.0000 0.0000 0.0000 0.0000 -0.0000 -0.0000 0.0000 -0.0000 -0.0000 0.0000 0.0000 0.0000 0.0000 0.0000 0.0000 0.0000 0.0000 0.0000 0.0000 -0.0000 0.0000
0.0000 0.0000 0.0000 0.0000 0.0000 0.0000 0.0000 0.0000 0.0000 0.0000 0.0000 0.0000 0.0000 0.0000 0.0000 0.0000 0.0000 0.0000 0.0000 0.0000 0.0000 0.0000 0.0000 0.0000 0.0000 0.0000 0.0000 0.0000 0.0000 0.0000 -0.0000 -0.0000 0.0000 -0.0000 -0.0000 0.0000 0.0000 0.0000 0.0000 0.0000 0.0000 0.0000 0.0000 0.0000 0.0000 0.0000 0.0000 0.0000 0.0000 0.0000 0.0000 0.0000 0.0000 0.0000 0.0000 0.0000 0.0000 -0.0000 0.0000 -0.0000 -0.0000 0.0000 -0.0000 -0.0000 0.0000 0.0000 -0.0000 -0.0000 0.0000 -0.0000 -0.0000 0.0000 -0.0000 0.0000 0.0000 0.0000 0.0000 0.0000 0.0000 -0.0000 -0.0000 0.0000 -0.0000 -0.0000 0.0000 0.0000 0.0000 0.0000 0.0000 0.0000 0.0000 0.0000 0.0000 0.0000 -0.0000 0.0000
0.0000 0.0000 0.0000 0.0000 0.0000 0.0000 0.0000 0.0000 0.0000 0.0000 0.0000 0.0000 0.0000 0.0000 0.0000 0.0000 0.0000 0.0000 0.0000 0.0000 0.0000 0.0000 0.0000 0.0000 0.0000 0.0000 0.0000 0.0000 0.0000 0.0000 -0.0000 -0.0000 0.0000 -0.0000 -0.0000 0.0000 0.0000 0.0000 0.0000 0.0000 0.0000 0.0000 0.0000 0.0000 0.0000 0.0000 0.0000 0.0000 0.0000 0.0000 0.0000 0.0000 0.0000 0.0000 0.0000 0.0000 0.0000 -0.0000 0.0000 -0.0000 -0.0000 0.0000 -0.0000 -0.0000 0.0000 0.0000 -0.0000 -0.0000 0.0000 -0.0000 -0.0000 0.0000 -0.0000 0.0000 0.0000 0.0000 0.0000 0.0000 0.0000 -0.0000 -0.0000 0.0000 -0.0000 -0.0000 0.0000 0.0000 0.0000 0.0000 0.0000 0.0000 0.0000 0.0000 0.0000 0.0000 -0.0000 0.0000
-29.2422 17.0105 0.7352 32.8811 87.1039 28.1134 0.0000 0.0000 0.0000 -13.9473 4.9113 11.6443 0.0573 1.5451 4.2500 0.3166 9.7588 -18.2654 0.6347 -5.0972 -14.1860 0.0000 0.0000 0.0000 14.3004 -9.0725 9.4953 -0.1604 -2.5803 7.1123 -1.1146 1.2166 -19.5908 -0.0595 -1.5733 4.3278 -3.5488 2.3328 9.9109 -0.3051 2.6995 0.0452 1.2775 1.4309 -5.6650 3.7836 0.9400 -20.0506 -1.6292 0.6064 19.8099 -1.1020 0.4150 9.5967 -0.0000 0.0000 0.0000 -86.9216 4.2326 36.6670 13.8044 -22.4543 -2.7529 -0.0000 -0.0000 11.6821 -5.4683 -5.8783 0.5617 -7.1250 0.0000 -0.0000 -23.3418 24.0024 12.8915 -0.0000 0.0000 0.0000 0.0000 -0.0000 -0.0000 0.0000 -0.0000 -0.0000 0.0000 0.0000 0.0000 0.0000 0.0000 0.0000 0.0000 0.0000 0.0000 0.0000 -0.0000 0.0000
-29.2561 17.0117 0.7321 28.5669 86.5697 23.7778 0.0000 0.0000 0.0000 -14.0009 5.3175 11.5649 0.0587 1.5631 4.2998 0.3296 9.7844 -18.4441 0.6072 -4.9876 -13.8732 0.0000 0.0000 0.0000 14.2145 -8.8521 9.2085 -0.1777 -2.7155 7.4876 -1.1224 1.6557 -19.5443 -0.0691 -1.6957 4.6654 -3.5709 2.5199 10.0805 -0.3288 2.9367 0.0162 1.2208 1.5496 -5.8032 3.7226 0.9344 -20.0117 -1.5801 0.6069 19.7770 -1.0746 0.4161 9.5777 -0.0000 0.0000 0.0000 -86.8940 4.0836 36.9193 13.6160 -22.1831 -2.6814 -0.0000 -0.0000 11.4852 -4.5249 -6.3932 0.5049 -7.1250 0.0000 -0.0000 -22.6052 23.5465 12.6748 -0.0000 0.0000 0.0000 88.1547 -5.3426 38.2292 -16.5897 26.3137 -3.9037 0.0000 0.0000 2.1821 -10.0786 -32.5004 5.4553 7.1250 -0.0000 -0.0000 25.9120 -60.9902 -10.4956
-29.2485 17.0088 0.7381 30.1482 86.8876 25.4129 0.0000 0.0000 0.0000 -13.7573 5.4075 11.3504 0.0634 1.6248 4.4699 0.3615 9.2681 -18.2681 0.5925 -4.9281 -13.7036 0.0000 0.0000 0.0000 14.3927 -8.8452 9.3839 -0.1667 -2.6303 7.2510 -1.1379 1.3124 -19.7724 -0.0789 -1.8116 4.9853 -3.6063 2.3858 9.9279 -0.2360 2.7655 0.0282 1.3707 1.4663 -5.7021 3.5595 0.9571 -20.0465 -1.5092 0.6709 19.8130 -1.0142 0.4419 9.5976 0.0000 0.0000 0.0000 -87.0405 4.0296 36.8172 13.5354 -22.0666 -2.6510 -0.0000 -0.0000 11.5089 11.2008 -19.5722 -3.7952 -7.1250 0.0000 -0.0000 -11.0449 10.3437 9.0567 0.0000 0.0000 0.0000 88.0240 -5.2829 38.2745 -16.5164 26.2159 -3.8713 0.0000 0.0000 2.2382 -10.0979 -32.1843 5.4188 7.1250 -0.0000 -0.0000 25.6050 -60.7144 -10.1928
-29.2540 17.0099 0.7332 25.7715 86.5700 20.9734 0.0000 0.0000 0.0000 -13.6958 5.5605 11.4883 0.0602 1.5835 4.3560 0.3554 9.5035 -18.4429 0.5807 -4.8796 -13.5656 0.0000 0.0000 0.0000 14.4783 -8.6631 9.2916 -0.1762 -2.7039 7.4554 -1.1221 1.4480 -19.5948 -0.0589 -1.5658 4.3070 -3.4890 2.4997 10.0728 -0.2008 2.9261 0.0180 1.3109 1.5435 -5.7990 3.5431 0.9727 -20.0784 -1.5425 0.7055 19.8720 -1.0185 0.4534 9.6251 -0.0000 0.0000 0.0000 -87.1036 4.0598 36.7280 13.5594 -22.1013 -2.6601 -0.0000 -0.0000 11.5363 -0.2108 -9.9688 0.0365 -7.1250 0.0000 -0.0000 -19.1381 20.2237 12.0228 -0.0000 0.0000 0.0000 87.9912 -5.2561 38.2769 -16.4953 26.1876 -3.8619 0.0000 0.0000 2.2862 -10.0256 -32.1450 5.3736 7.1250 -0.0000 -0.0000 25.6444 -60.6620 -10.1776
-29.2462 17.0022 0.7384 27.5437 86.9531 22.9470 0.0000 0.0000 0.0000 -13.6192 5.2434 11.3101 0.0610 1.5930 4.3821 0.3387 9.5299 -18.2783 0.6499 -5.1569 -14.3566 0.0000 0.0000 0.0000 14.6021 -8.7932 9.2484 -0.1667 -2.6302 7.2509 -1.1064 1.1264 -19.5417 -0.0359 -1.2236 3.3641 -3.3762 2.3516 9.7619 -0.2444 2.7514 0.0004 1.2412 1.4520 -5.6255 3.6194 0.9731 -20.1550 -1.5626 0.6852 19.9462 -1.0412 0.4481 9.6651 0.0000 -0.0000 0.0000 -86.9932 4.0116 36.7830 13.5637 -22.1076 -2.6617 -0.0000 -0.0000 11.4705 -4.3380 -6.1963 0.4691 -7.1250 0.0000 -0.0000 -22.5116 23.7324 12.5070 0.0000 -0.0000 0.0000 88.1143 -5.2480 38.2030 -16.4861 26.1754 -3.8579 0.0000 0.0000 2.3613 -10.0536 -32.1002 5.3821 7.1250 -0.0000 -0.0000 25.5755 -60.6289 -10.1278
-29.2417 17.0099 0.7422 30.0805 87.1253 25.2673 0.0000 0.0000 0.0000 -13.7455 4.9639 11.7239 0.0569 1.5395 4.2345 0.3162 9.7235 -18.2219 0.6250 -5.0588 -14.0765 0.0000 0.0000 0.0000 14.5133 -8.9915 9.5993 -0.1590 -2.5693 7.0818 -1.1035 1.0148 -19.5476 -0.0367 -1.2365 3.3997 -3.4519 2.3013 10.0071 -0.2359 2.6679 0.0331 1.2963 1.4142 -5.7290 3.5552 0.9695 -20.1204 -1.4911 0.6841 19.9166 -1.0056 0.4509 9.6479 -0.0000 0.0000 0.0000 -87.0319 4.0206 36.6714 13.5107 -22.0309 -2.6418 -0.0000 -0.0000 11.6016 -4.3099 -6.2810 0.4724 -7.1250 0.0000 -0.0000 -22.4776 23.6545 12.5293 -0.0000 0.0000 0.0000 88.0880 -5.3757 38.2247 -16.4763 26.1622 -3.8536 0.0000 0.0000 2.6511 -10.3156 -31.8015 5.4788 7.1250 -0.0000 -0.0000 25.0400 -60.4247 -9.7771
